<svg xmlns="http://www.w3.org/2000/svg" width="960" height="720" viewBox="0 0 960 720"><rect width="960" height="720" fill="#e3c6a3"/><circle cx="740" cy="140" r="72" fill="#f5e7bf"/><path d="M0 430Q170 260 410 430T960 380V720H0" fill="#a1a17b"/><path d="M0 535Q300 330 620 520T960 470V720H0" fill="#677454"/><path d="M0 600Q420 490 960 595V720H0" fill="#c5a784"/><path d="M220 590V270M210 410L135 340M225 360L300 275" stroke="#5c5140" stroke-width="19" fill="none"/><g fill="#526443"><ellipse cx="160" cy="285" rx="110" ry="82"/><ellipse cx="270" cy="260" rx="100" ry="105"/><ellipse cx="210" cy="205" rx="110" ry="82"/></g><ellipse cx="690" cy="618" rx="130" ry="32" fill="#9b7957"/><path d="M615 520h150l-12 98H630Z" fill="#dfc69d"/><ellipse cx="690" cy="520" rx="75" ry="24" fill="#ab6c35"/><path d="M628 522q60-22 125 0" stroke="#e5ae53" stroke-width="5" fill="none"/><text x="45" y="670" font-family="Arial,sans-serif" letter-spacing="4" font-size="13" fill="#faf5e8">À LA TABLE · ILLUSTRATION</text></svg>